<svg id="Layer_2" height="512" viewBox="0 0 32 32" width="512" xmlns="http://www.w3.org/2000/svg" data-name="Layer 2"><path d="m28.554 17.25h-25.108a1.25 1.25 0 0 1 0-2.5h25.108a1.25 1.25 0 1 1 0 2.5z"/><path d="m28.554 10.107h-25.108a1.25 1.25 0 1 1 0-2.5h25.108a1.25 1.25 0 1 1 0 2.5z"/><path d="m28.554 24.393h-25.108a1.25 1.25 0 0 1 0-2.5h25.108a1.25 1.25 0 1 1 0 2.5z"/><path d="m6.268 12.33a1.249 1.249 0 0 1 -1.25-1.25v-4.446a1.25 1.25 0 0 1 2.5 0v4.446a1.25 1.25 0 0 1 -1.25 1.25z"/><path d="m6.268 26.616a1.249 1.249 0 0 1 -1.25-1.25v-4.446a1.25 1.25 0 0 1 2.5 0v4.446a1.25 1.25 0 0 1 -1.25 1.25z"/><path d="m25.715 19.474a1.25 1.25 0 0 1 -1.25-1.25v-4.448a1.25 1.25 0 0 1 2.5 0v4.448a1.25 1.25 0 0 1 -1.25 1.25z"/></svg>