<svg clip-rule="evenodd" fill-rule="evenodd" height="512" stroke-linejoin="round" stroke-miterlimit="2" viewBox="0 0 267 267" width="512" xmlns="http://www.w3.org/2000/svg"><path d="m183.683 247.651h-143.08c-7.177 0-14.06-2.851-19.135-7.926s-7.926-11.958-7.926-19.135c0-42.827 0-132.079 0-174.906 0-7.177 2.851-14.06 7.926-19.135s11.958-7.926 19.135-7.926h86.62c4.38 0 8.67 1.25 12.366 3.603 12.274 7.815 44.537 28.358 60.498 38.521 6.638 4.227 10.658 11.552 10.658 19.421v36.193c0 1.031-.509 1.996-1.359 2.579-.851.582-1.934.708-2.896.335-7.074-2.742-14.763-4.245-22.801-4.245-34.873 0-63.185 28.313-63.185 63.186s28.312 63.185 63.181 63.185l-.002.002c1.001.062.024 6.102.001 6.246z" fill="#c0e0ff"/><path d="m129.895 18.778c3.438.402 6.754 1.576 9.694 3.448 12.274 7.815 44.537 28.358 60.498 38.521 4.363 2.778 7.595 6.895 9.298 11.626h-52.428c-7.178 0-14.061-2.851-19.136-7.926s-7.926-11.958-7.926-19.135z" fill="#499ff3"/><circle cx="183.689" cy="178.216" fill="#499ff3" r="69.436"/><g fill="#000940"><path d="m45.661 144.804h64.657c1.725 0 3.125-1.401 3.125-3.125 0-1.725-1.4-3.125-3.125-3.125h-64.657c-1.725 0-3.125 1.4-3.125 3.125 0 1.724 1.4 3.125 3.125 3.125z"/><path d="m45.661 98.958h100.172c1.725 0 3.125-1.4 3.125-3.125 0-1.724-1.4-3.125-3.125-3.125h-100.172c-1.725 0-3.125 1.401-3.125 3.125 0 1.725 1.4 3.125 3.125 3.125z"/><path d="m45.661 190.649h53.092c1.725 0 3.125-1.4 3.125-3.125s-1.4-3.125-3.125-3.125h-53.092c-1.725 0-3.125 1.4-3.125 3.125s1.4 3.125 3.125 3.125z"/><path d="m133.93 19.622c-.947-.289-1.975-.111-2.77.478-.796.59-1.265 1.521-1.265 2.511v22.701c0 7.177 2.851 14.06 7.926 19.135s11.958 7.926 19.136 7.926h47.399c1.148 0 2.204-.63 2.75-1.64.545-1.011.492-2.239-.138-3.2-1.761-2.683-4.09-5.009-6.881-6.786-15.961-10.163-48.224-30.706-60.498-38.521-1.769-1.126-3.673-2-5.659-2.604zm2.214 7.82 60.586 38.577c.054.034.108.069.162.104h-39.935c-5.52 0-10.813-2.192-14.716-6.095s-6.096-9.197-6.096-14.716z"/><path d="m183.689 108.78c-38.322 0-69.435 31.113-69.435 69.436 0 38.322 31.113 69.435 69.435 69.435 38.323 0 69.436-31.113 69.436-69.435 0-38.323-31.113-69.436-69.436-69.436zm0 6.25c34.873 0 63.186 28.313 63.186 63.186s-28.313 63.185-63.186 63.185-63.185-28.312-63.185-63.185 28.312-63.186 63.185-63.186z"/><path d="m183.683 247.651h-143.08c-7.177 0-14.06-2.851-19.135-7.926s-7.926-11.958-7.926-19.135c0-42.827 0-132.079 0-174.906 0-7.177 2.851-14.06 7.926-19.135s11.958-7.926 19.135-7.926h86.62c4.38 0 8.67 1.25 12.366 3.603 12.274 7.815 44.537 28.358 60.498 38.521 6.638 4.227 10.658 11.552 10.658 19.421v36.193c0 1.031-.509 1.996-1.359 2.579-.851.582-1.934.708-2.896.335-7.074-2.742-14.763-4.245-22.801-4.245-34.873 0-63.185 28.313-63.185 63.186s28.312 63.185 63.181 63.185h-.002v.002c1.001.062.024 6.102.001 6.246l.001.002zm0-.003v.003l.001-.002-.001-.001v-6.245l-.013-.001-.154.004-.15.011c-.052.007-.104.014-.157.02l-.156.028-.068.016c-2.792.714.602 6.018.698 6.167zm-28.804-6.247h-114.276c-5.519 0-10.813-2.192-14.716-6.095s-6.095-9.197-6.095-14.716c0-42.827 0-132.079 0-174.906 0-5.519 2.192-10.813 6.095-14.716s9.197-6.095 14.716-6.095h86.619c3.192 0 6.318.91 9.01 2.624 0 .001 60.498 38.522 60.498 38.522 4.836 3.079 7.765 8.416 7.765 14.149v31.789c-6.57-2.064-13.559-3.177-20.806-3.177-38.322 0-69.435 31.113-69.435 69.436 0 28.048 16.666 52.234 40.625 63.185z"/><path d="m183.689 219.901c-23.006 0-41.685-18.679-41.685-41.685 0-9.863 3.433-18.93 9.168-26.071 0 0 14.428 14.428 14.428 14.428 1.219 1.22 3.2 1.22 4.419 0 1.22-1.219 1.22-3.2 0-4.419l-16.797-16.797c-.598-.599-1.413-.929-2.259-.915-.846.013-1.65.369-2.229.986-8.048 8.576-12.98 20.111-12.98 32.788 0 26.456 21.479 47.935 47.935 47.935 1.725 0 3.125-1.401 3.125-3.125 0-1.725-1.4-3.125-3.125-3.125z"/><path d="m183.689 136.531c23.007 0 41.685 18.678 41.685 41.685 0 9.862-3.433 18.929-9.167 26.07 0 0-15.325-15.325-15.325-15.325-1.22-1.22-3.2-1.22-4.42 0-1.219 1.22-1.219 3.2 0 4.419l17.695 17.695c.598.598 1.413.928 2.259.915.846-.014 1.65-.37 2.229-.987 8.048-8.576 12.979-20.11 12.979-32.787 0-26.456-21.479-47.935-47.935-47.935-1.724 0-3.125 1.4-3.125 3.125 0 1.724 1.401 3.125 3.125 3.125z"/><path d="m199.251 199.341-1.02-8.611s8.611 1.02 8.611 1.02c1.713.202 3.268-1.023 3.471-2.736s-1.023-3.268-2.736-3.471l-12.548-1.486c-.951-.113-1.901.216-2.578.893-.676.677-1.006 1.627-.893 2.577l1.486 12.549c.203 1.713 1.758 2.938 3.471 2.735 1.713-.202 2.939-1.758 2.736-3.47z"/><path d="m168.128 157.091 1.02 8.611s-8.611-1.02-8.611-1.02c-1.713-.203-3.268 1.023-3.471 2.736-.203 1.712 1.023 3.268 2.736 3.47l12.548 1.487c.95.112 1.9-.217 2.577-.894s1.006-1.627.894-2.577l-1.487-12.548c-.202-1.713-1.758-2.939-3.47-2.736-1.713.203-2.939 1.758-2.736 3.471z"/></g></svg>